<svg width="455" height="371" viewBox="0 0 455 371" fill="none" xmlns="http://www.w3.org/2000/svg">
<path d="M436.041 293.708C436.041 301.908 432.047 309.772 424.936 315.57C417.825 321.368 408.181 324.625 398.125 324.625H56.8747C46.8185 324.625 37.1743 321.368 30.0635 315.57C22.9528 309.772 18.958 301.908 18.958 293.708V123.667C18.958 115.467 22.9528 107.603 30.0635 101.805C37.1743 96.0073 46.8185 92.75 56.8747 92.75H132.708L170.625 46.375H284.375L322.291 92.75H398.125C408.181 92.75 417.825 96.0073 424.936 101.805C432.047 107.603 436.041 115.467 436.041 123.667V293.708Z" stroke="#1E1E1E" stroke-width="4" stroke-linecap="round" stroke-linejoin="round"/>
<path d="M227.5 262.792C269.381 262.792 303.333 235.108 303.333 200.958C303.333 166.809 269.381 139.125 227.5 139.125C185.618 139.125 151.666 166.809 151.666 200.958C151.666 235.108 185.618 262.792 227.5 262.792Z" stroke="#1E1E1E" stroke-width="4" stroke-linecap="round" stroke-linejoin="round"/>
</svg>
