<svg width="455" height="371" viewBox="0 0 455 371" fill="none" xmlns="http://www.w3.org/2000/svg">
<path d="M227.5 231.875C258.911 231.875 284.375 211.112 284.375 185.5C284.375 159.888 258.911 139.125 227.5 139.125C196.088 139.125 170.625 159.888 170.625 185.5C170.625 211.112 196.088 231.875 227.5 231.875Z" stroke="#1E1E1E" stroke-width="4" stroke-linecap="round" stroke-linejoin="round"/>
<path d="M367.791 231.875C365.268 236.537 364.515 241.709 365.63 246.724C366.745 251.739 369.677 256.366 374.048 260.009L375.185 260.937C378.71 263.808 381.507 267.218 383.415 270.971C385.323 274.724 386.306 278.747 386.306 282.81C386.306 286.873 385.323 290.896 383.415 294.649C381.507 298.403 378.71 301.812 375.185 304.684C371.664 307.558 367.482 309.839 362.879 311.394C358.276 312.95 353.342 313.751 348.359 313.751C343.376 313.751 338.442 312.95 333.839 311.394C329.236 309.839 325.054 307.558 321.533 304.684L320.395 303.756C315.927 300.193 310.252 297.802 304.102 296.893C297.952 295.983 291.609 296.597 285.891 298.655C280.284 300.615 275.502 303.868 272.133 308.016C268.765 312.163 266.957 317.023 266.933 321.997V324.625C266.933 332.825 262.938 340.688 255.827 346.486C248.717 352.284 239.072 355.542 229.016 355.542C218.96 355.542 209.316 352.284 202.205 346.486C195.094 340.688 191.1 332.825 191.1 324.625V323.234C190.953 318.117 188.922 313.155 185.27 308.992C181.619 304.829 176.516 301.658 170.625 299.892C164.907 297.834 158.564 297.22 152.414 298.129C146.264 299.039 140.589 301.429 136.12 304.993L134.983 305.92C131.462 308.795 127.28 311.075 122.677 312.631C118.074 314.187 113.14 314.988 108.157 314.988C103.174 314.988 98.2402 314.187 93.6371 312.631C89.0341 311.075 84.8524 308.795 81.3309 305.92C77.8056 303.049 75.0089 299.639 73.1007 295.886C71.1926 292.133 70.2105 288.11 70.2105 284.047C70.2105 279.984 71.1926 275.961 73.1007 272.208C75.0089 268.454 77.8056 265.045 81.3309 262.173L82.4684 261.246C86.839 257.603 89.7709 252.975 90.886 247.961C92.0011 242.946 91.2483 237.774 88.7247 233.112C86.3215 228.54 82.3311 224.64 77.2447 221.894C72.1584 219.147 66.1981 217.673 60.0976 217.653H56.8747C46.8185 217.653 37.1743 214.396 30.0635 208.598C22.9528 202.8 18.958 194.936 18.958 186.737C18.958 178.537 22.9528 170.673 30.0635 164.875C37.1743 159.077 46.8185 155.82 56.8747 155.82H58.5809C64.856 155.7 70.9418 154.044 76.0472 151.067C81.1526 148.089 85.0414 143.928 87.208 139.125C89.7316 134.463 90.4844 129.291 89.3693 124.276C88.2542 119.261 85.3223 114.634 80.9518 110.991L79.8143 110.063C76.2889 107.192 73.4922 103.782 71.5841 100.029C69.6759 96.2758 68.6938 92.2527 68.6938 88.1898C68.6938 84.1269 69.6759 80.1038 71.5841 76.3506C73.4922 72.5973 76.2889 69.1876 79.8143 66.3162C83.3357 63.4417 87.5175 61.1613 92.1205 59.6055C96.7235 58.0496 101.657 57.2488 106.64 57.2488C111.623 57.2488 116.557 58.0496 121.16 59.6055C125.763 61.1613 129.945 63.4417 133.466 66.3162L134.604 67.2437C139.072 70.8075 144.747 73.1981 150.897 74.1073C157.047 75.0166 163.39 74.4027 169.108 72.345H170.625C176.232 70.3855 181.014 67.1318 184.383 62.9844C187.751 58.8371 189.559 53.9772 189.583 49.0029V46.375C189.583 38.1754 193.578 30.3116 200.689 24.5136C207.799 18.7156 217.444 15.4583 227.5 15.4583C237.556 15.4583 247.2 18.7156 254.311 24.5136C261.422 30.3116 265.416 38.1754 265.416 46.375V47.7662C265.441 52.7405 267.248 57.6005 270.617 61.7478C273.985 65.8951 278.767 69.1488 284.375 71.1083C290.093 73.1661 296.436 73.7799 302.586 72.8707C308.736 71.9614 314.411 69.5708 318.879 66.0071L320.016 65.0796C323.538 62.2051 327.72 59.9247 332.323 58.3688C336.926 56.813 341.86 56.0121 346.842 56.0121C351.825 56.0121 356.759 56.813 361.362 58.3688C365.965 59.9247 370.147 62.2051 373.668 65.0796C377.194 67.9509 379.99 71.3607 381.899 75.1139C383.807 78.8671 384.789 82.8902 384.789 86.9531C384.789 91.0161 383.807 95.0391 381.899 98.7924C379.99 102.546 377.194 105.955 373.668 108.827L372.531 109.754C368.16 113.397 365.228 118.025 364.113 123.039C362.998 128.054 363.751 133.226 366.275 137.888V139.125C368.678 143.697 372.668 147.596 377.755 150.343C382.841 153.09 388.801 154.563 394.902 154.583H398.125C408.181 154.583 417.825 157.841 424.936 163.639C432.047 169.437 436.041 177.3 436.041 185.5C436.041 193.7 432.047 201.563 424.936 207.361C417.825 213.159 408.181 216.417 398.125 216.417H396.418C390.318 216.436 384.358 217.91 379.271 220.657C374.185 223.404 370.195 227.303 367.791 231.875Z" stroke="#1E1E1E" stroke-width="4" stroke-linecap="round" stroke-linejoin="round"/>
</svg>
