<svg  width="55" height="71" viewBox="0 0 455 371" fill="none" xmlns="http://www.w3.org/2000/svg">
<path d="M398.125 177.771C398.19 198.174 392.344 218.301 381.063 236.512C367.686 258.336 347.122 276.691 321.675 289.523C296.227 302.356 266.9 309.157 236.979 309.167C211.957 309.22 187.273 304.453 164.938 295.254L56.875 324.625L92.8958 236.512C81.6143 218.301 75.7681 198.174 75.8333 177.771C75.8449 153.374 84.1866 129.461 99.9241 108.711C115.661 87.9618 138.173 71.1944 164.938 60.2875C187.273 51.0887 211.957 46.3218 236.979 46.375H246.458C285.974 48.1526 323.297 61.7524 351.282 84.5704C379.266 107.388 395.945 137.821 398.125 170.042V177.771Z" stroke="#1E1E1E" stroke-width="4" stroke-linecap="round" stroke-linejoin="round"/>
</svg>
